<svg width="1016" height="197" viewBox="0 0 1016 197" fill="none" xmlns="http://www.w3.org/2000/svg">
<path opacity="0.1" d="M77.8035 3.83104H106.304L184.904 192.831H157.304L134.504 137.331H48.4035L26.2035 192.831H0.703516L77.8035 3.83104ZM90.4035 32.631L56.5035 116.631H126.104L91.6035 32.631H90.4035ZM268.585 192.831H240.385L164.485 3.83104H191.185L255.085 162.831H256.285L318.385 3.83104H344.785L268.585 192.831ZM489.385 171.231V192.831H354.685V3.83104H486.685V25.431H379.885V84.8311H464.785V106.131H379.885V171.231H489.385ZM534.04 3.83104L637.54 148.431V3.83104H661.84V192.831H641.14L531.34 41.031V192.831H507.04V3.83104H534.04ZM768.849 192.831H743.049V25.431H674.349V3.83104H838.749V25.431H768.849V192.831ZM1015.46 98.331C1015.46 156.531 976.461 196.431 921.561 196.431C866.361 196.431 827.661 156.531 827.661 98.331C827.661 40.1311 866.361 0.231049 921.561 0.231049C976.461 0.231049 1015.46 40.1311 1015.46 98.331ZM988.461 98.331C988.461 52.1311 962.361 22.431 921.561 22.431C880.761 22.431 854.361 52.1311 854.361 98.331C854.361 144.531 880.761 174.231 921.561 174.231C962.361 174.231 988.461 144.531 988.461 98.331Z" fill="url(#paint0_linear_337_228)"/>
<defs>
<linearGradient id="paint0_linear_337_228" x1="511" y1="54.9587" x2="511" y2="192.831" gradientUnits="userSpaceOnUse">
<stop stop-color="#E7D2D2"/>
<stop offset="1" stop-color="#E7D2D2" stop-opacity="0"/>
</linearGradient>
</defs>
</svg>
