<svg width="20" height="16" viewBox="0 0 20 16" fill="none" xmlns="http://www.w3.org/2000/svg">
<path d="M18.9404 6.87122C19.4927 6.87122 19.9404 7.31893 19.9404 7.87122C19.9404 8.4235 19.4927 8.87122 18.9404 8.87122L18.9404 6.87122ZM0.352755 8.57832C-0.0377689 8.1878 -0.037769 7.55463 0.352755 7.16411L6.71672 0.800149C7.10724 0.409625 7.74041 0.409625 8.13093 0.800149C8.52145 1.19067 8.52145 1.82384 8.13093 2.21436L2.47408 7.87122L8.13093 13.5281C8.52145 13.9186 8.52145 14.5518 8.13093 14.9423C7.74041 15.3328 7.10724 15.3328 6.71672 14.9423L0.352755 8.57832ZM18.9404 8.87122L1.05986 8.87122L1.05986 6.87122L18.9404 6.87122L18.9404 8.87122Z" fill="white"/>
</svg>
