<svg width="26" height="26" viewBox="0 0 26 26" fill="none" xmlns="http://www.w3.org/2000/svg">
<g clip-path="url(#clip0_273_410)">
<path d="M24.1823 8.38325V1.9187H17.6055" stroke="white" stroke-width="1.5" stroke-linecap="round" stroke-linejoin="round"/>
<path d="M16.5039 9.46067L24.1769 1.9187" stroke="white" stroke-width="1.5" stroke-linecap="round" stroke-linejoin="round"/>
<path d="M23.0814 19.0716V22.3039C23.0826 22.604 23.0201 22.901 22.8978 23.1759C22.7755 23.4508 22.5961 23.6976 22.3712 23.9005C22.1462 24.1033 21.8807 24.2578 21.5915 24.3539C21.3023 24.45 20.9958 24.4857 20.6918 24.4587C17.3188 24.0985 14.0788 22.9656 11.2321 21.151C8.58367 19.4968 6.33824 17.2897 4.65529 14.6865C2.8028 11.8757 1.64995 8.67554 1.29015 5.34523C1.26276 5.04728 1.29878 4.747 1.39592 4.46349C1.49307 4.17998 1.64921 3.91946 1.8544 3.69851C2.05959 3.47757 2.30934 3.30104 2.58775 3.18017C2.86615 3.05929 3.16711 2.99672 3.47146 2.99644H6.75988C7.29184 2.9913 7.80756 3.17646 8.21091 3.51741C8.61425 3.85837 8.87771 4.33185 8.95216 4.84961C9.09096 5.88401 9.34836 6.89966 9.71946 7.87717C9.86694 8.26281 9.89885 8.68192 9.81143 9.08484C9.72401 9.48776 9.52091 9.8576 9.22619 10.1505L7.8341 11.5189C9.39451 14.2163 11.6667 16.4496 14.4109 17.9834L15.803 16.6151C16.1011 16.3254 16.4773 16.1258 16.8872 16.0398C17.2972 15.9539 17.7235 15.9853 18.1159 16.1302C19.1104 16.495 20.1437 16.748 21.196 16.8844C21.7285 16.9583 22.2148 17.2219 22.5624 17.6252C22.91 18.0284 23.0947 18.5432 23.0814 19.0716Z" stroke="white" stroke-width="1.5" stroke-linecap="round" stroke-linejoin="round"/>
</g>
<defs>
<clipPath id="clip0_273_410">
<rect width="24.7808" height="24.7808" fill="white" transform="translate(0.609375 0.881104)"/>
</clipPath>
</defs>
</svg>
