<svg width="16" height="12" viewBox="0 0 16 12" fill="none" xmlns="http://www.w3.org/2000/svg">
<path d="M0.929199 5.33447C0.514986 5.33447 0.179199 5.67026 0.179199 6.08447C0.179199 6.49869 0.514986 6.83447 0.929199 6.83447L0.929199 5.33447ZM14.8511 6.6148C15.144 6.32191 15.144 5.84703 14.8511 5.55414L10.0782 0.781171C9.78527 0.488278 9.31039 0.488278 9.0175 0.781171C8.72461 1.07406 8.72461 1.54894 9.0175 1.84183L13.2601 6.08447L9.0175 10.3271C8.72461 10.62 8.72461 11.0949 9.0175 11.3878C9.31039 11.6807 9.78527 11.6807 10.0782 11.3878L14.8511 6.6148ZM0.929199 6.83447L14.3208 6.83447L14.3208 5.33447L0.929199 5.33447L0.929199 6.83447Z" fill="#E7D2D2"/>
</svg>
