<svg width="20" height="16" viewBox="0 0 20 16" fill="none" xmlns="http://www.w3.org/2000/svg">
<path d="M1.05957 6.87122C0.507286 6.87122 0.0595704 7.31893 0.0595703 7.87122C0.0595703 8.4235 0.507285 8.87122 1.05957 8.87122L1.05957 6.87122ZM19.6472 8.57832C20.0378 8.1878 20.0378 7.55463 19.6472 7.16411L13.2833 0.800149C12.8928 0.409625 12.2596 0.409625 11.8691 0.800149C11.4785 1.19067 11.4785 1.82384 11.8691 2.21436L17.5259 7.87122L11.8691 13.5281C11.4785 13.9186 11.4785 14.5518 11.8691 14.9423C12.2596 15.3328 12.8928 15.3328 13.2833 14.9423L19.6472 8.57832ZM1.05957 8.87122L18.9401 8.87122L18.9401 6.87122L1.05957 6.87122L1.05957 8.87122Z" fill="white"/>
</svg>
